<svg width="124" height="124" viewBox="0 0 124 124" fill="none" xmlns="http://www.w3.org/2000/svg">
<path fill-rule="evenodd" clip-rule="evenodd" d="M94.4531 0C112.375 0 124 11.625 124 29.5469V94.4531C124 112.375 112.375 124 94.4531 124H29.5469C11.625 124 0 112.375 0 94.4531V29.5469C0 11.625 11.625 0 29.5469 0H94.4531Z" fill="url(#paint0_linear_10_37)"/>
<path fill-rule="evenodd" clip-rule="evenodd" d="M48.4542 48.4612L62.3696 9.30005L76.0992 48.5287H115.951L84.182 72.221L98.0291 113.966L61.7 88.6794L26.4901 114.195L39.9783 72.221L8.05713 48.5226L48.4542 48.4612ZM49.6249 58.3522C49.6249 56.9427 50.7675 55.8 52.1711 55.8H68.9026C70.3089 55.8 71.4489 56.9425 71.4489 58.3522V71.8479C71.4489 73.2574 70.3062 74.4 68.9026 74.4H52.1711C50.7648 74.4 49.6249 73.2576 49.6249 71.8479V58.3522ZM72.3952 62.4021L78.3483 57.9226V72.7614L72.3952 67.7801V62.4021ZM46.9308 58.9677H48.3817V63.9383H46.9308C46.1295 63.9383 45.48 63.4617 45.48 62.872V60.034C45.48 59.4451 46.1239 58.9677 46.9308 58.9677Z" fill="white"/>
<defs>
<linearGradient id="paint0_linear_10_37" x1="0" y1="0" x2="0" y2="124" gradientUnits="userSpaceOnUse">
<stop stop-color="#FFBB38"/>
<stop offset="1" stop-color="#5E4007"/>
</linearGradient>
</defs>
</svg>
